<svg xmlns="http://www.w3.org/2000/svg" id="catpaw" data-name="Layer 1" viewBox="0 0 64 80" x="0px" y="0px"><title>Untitled-1</title><path d="M9.62,36a6.89,6.89,0,0,0,1.85-.26,7.43,7.43,0,0,0,4.78-4.55,11.71,11.71,0,0,0,.3-7.6,11.72,11.72,0,0,0-4.27-6.31A7.45,7.45,0,0,0,5.81,16,7.46,7.46,0,0,0,1,20.52a11.64,11.64,0,0,0-.3,7.6A11.69,11.69,0,0,0,5,34.42,7.84,7.84,0,0,0,9.62,36Z"/><path d="M22.83,20.57h.33a7.16,7.16,0,0,0,5.52-3.36,11.94,11.94,0,0,0,1.91-7.34,11.94,11.94,0,0,0-2.68-7.09A7.18,7.18,0,0,0,22.07,0a7.14,7.14,0,0,0-5.51,3.37,11.83,11.83,0,0,0-1.91,7.33C14.94,16.24,18.57,20.57,22.83,20.57Z"/><path d="M38.86,20.34a6.08,6.08,0,0,0,1.68.23,8.1,8.1,0,0,0,5.35-2.25,12.07,12.07,0,0,0,3.48-5.83C50.87,7,48.59,1.57,44.28.39s-9,2.36-10.51,7.86S34.55,19.17,38.86,20.34Z"/><path d="M62.94,20.37a7.27,7.27,0,0,0-4.75-4.48c-4.31-1.17-9,2.35-10.52,7.85A11.88,11.88,0,0,0,48,31.36a7.28,7.28,0,0,0,4.76,4.48,6.36,6.36,0,0,0,1.68.23,8.1,8.1,0,0,0,5.35-2.25A12.08,12.08,0,0,0,63.29,28,11.85,11.85,0,0,0,62.94,20.37Z"/><path d="M55,42.51a38.25,38.25,0,0,1-3.78-2.39A38.23,38.23,0,0,1,40.41,27.75c-4.2-7.35-8.14-7.57-8.57-7.57h0c-.44,0-4.37.22-8.58,7.57A38,38,0,0,1,12.39,40.12a38.13,38.13,0,0,1-3.77,2.39A6.72,6.72,0,0,0,5.94,45C3.28,49.52,4.27,56.12,8.22,60.32A11.27,11.27,0,0,0,16.62,64a16,16,0,0,0,7.18-1.87C29.52,59,34,57.68,38.41,61a14.92,14.92,0,0,0,5.83,2.74A11.61,11.61,0,0,0,56.51,59c3.05-4.24,3.55-10,1.19-14A6.56,6.56,0,0,0,55,42.51ZM20.63,44.4c-2.45.2-4.24,1-5.3,2.41-1.3,1.69-1.64,4.33-1,7.85a.49.49,0,0,1-.39.57h-.09a.49.49,0,0,1-.49-.41c-.68-3.79-.29-6.68,1.18-8.6,1.25-1.64,3.27-2.57,6-2.81a.5.5,0,0,1,.54.45A.51.51,0,0,1,20.63,44.4Z"/><text x="0" y="79" fill="#000000" font-size="5px" font-weight="bold" font-family="'Helvetica Neue', Helvetica, Arial-Unicode, Arial, Sans-serif"></text><text x="0" y="84" fill="#000000" font-size="5px" font-weight="bold" font-family="'Helvetica Neue', Helvetica, Arial-Unicode, Arial, Sans-serif"></text></svg>